<?xml version="1.0" encoding="UTF-8" standalone="no"?>
<!-- Generator: Adobe Illustrator 13.0.0, SVG Export Plug-In . SVG Version: 6.00 Build 14948)  -->

<svg
   xmlns:dc="http://purl.org/dc/elements/1.1/"
   xmlns:cc="http://creativecommons.org/ns#"
   xmlns:rdf="http://www.w3.org/1999/02/22-rdf-syntax-ns#"
   xmlns:svg="http://www.w3.org/2000/svg"
   xmlns="http://www.w3.org/2000/svg"
   xmlns:sodipodi="http://sodipodi.sourceforge.net/DTD/sodipodi-0.dtd"
   xmlns:inkscape="http://www.inkscape.org/namespaces/inkscape"
   version="1.1"
   x="0px"
   y="0px"
   width="170px"
   height="141px"
   viewBox="0 0 170 141"
   enable-background="new 0 0 170 141"
   xml:space="preserve"
   id="svg3110"
   inkscape:version="0.48.2 r9819"
   sodipodi:docname="this_is_erlang.svg"><metadata
   id="metadata3195"><rdf:RDF><cc:Work
       rdf:about=""><dc:format>image/svg+xml</dc:format><dc:type
         rdf:resource="http://purl.org/dc/dcmitype/StillImage" /><dc:title></dc:title></cc:Work></rdf:RDF></metadata><defs
   id="defs3193">
	
	
</defs><sodipodi:namedview
   pagecolor="#ffffff"
   bordercolor="#666666"
   borderopacity="1"
   objecttolerance="10"
   gridtolerance="10"
   guidetolerance="10"
   inkscape:pageopacity="0"
   inkscape:pageshadow="2"
   inkscape:window-width="1099"
   inkscape:window-height="776"
   id="namedview3191"
   showgrid="false"
   inkscape:zoom="3.4242311"
   inkscape:cx="106.6492"
   inkscape:cy="82.011519"
   inkscape:window-x="0"
   inkscape:window-y="0"
   inkscape:window-maximized="0"
   inkscape:current-layer="svg3110" />



<g
   id="mennekes"
   display="none">
	<g
   display="inline"
   id="g3166">
		<path
   clip-rule="evenodd"
   d="M98.404,64.702c0.442-0.32,1.022-0.503,1.907-0.382    c0.923-0.306-1.197-1.57,0-2.289c1.952-0.044,2.688,1.127,4.197,1.526c0.839-0.432,0.026-2.517,1.145-2.67    c2.727,3.042,6.499,9.483,9.92,13.735c2.219,2.758,7.492,6.1,10.302,1.526c2.677-4.358,3.406-13.647,4.96-18.314    c1.739-0.468,1.205,1.338,2.289,1.526c3.39-6.083,7.146,3.127,5.342,5.723c-1.092,1.57-2.903-0.055-4.197,1.145    c-1.232,1.143-2.381,6.577-3.053,8.776c-1.955,6.402-3.279,11.722-5.341,18.313c-0.861,2.75-1.516,6.685-3.053,8.394    c-2.484,2.762-7.981,4.088-11.064,5.723c-6.766,3.589-9.484,5.535-16.787,9.157c-2.951,1.464-9.942,5.768-10.684-0.382    c-0.629-5.222,9.422-7.93,14.88-10.683c2.021-1.02,4.13-2.028,6.868-3.434c0.493-0.254,6.351-2.803,6.485-3.435    c0.306-1.431-4.632-3.801-5.723-4.578c-1.841-1.312-3.692-2.779-5.723-4.196c-5.043-3.521-9.479-5.557-11.828-8.013    c-2.048-2.141-0.964-7.252,1.908-7.631c2.201-0.29,4.537,2.479,6.485,3.815c3.479,2.386,7.639,5.035,11.828,8.013    c1.072,0.761,4.944,4.492,5.723,4.196c0.751-0.285,1.685-3.666,1.526-4.96c-0.197-1.619-9.839-14.844-11.446-15.261    c-1.258-0.327-3.315,2.338-5.341,1.145c-1.055-0.621,0.722-0.859,0-2.289c-0.216-0.427-1-0.181-1.146-0.763    C98.574,67.286,99.757,65.692,98.404,64.702z"
   id="path3168" />
		<path
   clip-rule="evenodd"
   d="M119.389,66.991c8.205-2.833,8.995,11.229,1.526,10.683    C117.898,77.453,112.926,69.223,119.389,66.991z"
   id="path3170" />
	</g>
	<g
   display="inline"
   id="g3172">
		<path
   clip-rule="evenodd"
   d="M31.449,57.681c-9.65,2.82-9.748-13.237,0-10.372    C35.792,48.586,35.451,56.512,31.449,57.681z"
   id="path3174" />
		<path
   clip-rule="evenodd"
   d="M44.126,63.828c1.092-2.475,0.367-6.448,3.073-6.531    c3.792-0.117,1.85,11.672-0.384,12.678c-3.658,1.644-6.628-4.339-8.451-5.379c0.443,3.512,1.577,5.703,2.688,9.604    c0.562,1.969,1.491,8.953,2.689,9.604c1.248,0.678,6.654-1.724,7.299-1.921c2.09-0.643,4.371-2.169,6.914-2.306    c4.497-0.239,9.801,2.939,13.062,2.306c1.819-0.354,6.494-5.568,8.067-0.384c1.157,3.813-2.931,7.794-3.841,8.066    c-3.235,0.969-12.776-2.653-17.288-2.306c-3.925,0.305-10.479,3.974-14.213,4.611c-0.418,0.071-3.066-0.393-3.457,0    c-1.431,1.433-0.382,5.703-0.385,6.146c-0.012,2.156,0.281,4.43,0,6.531c-0.585,4.372-4.001,7.316-3.842,9.987    c0.07,1.165,2.318,2.727,2.306,4.226c-0.054,6.535-10.529,3.392-11.141-1.152c-0.553-4.108,4.352-9.16,4.994-12.677    c2.625-14.379-3.928-24.192-5.762-37.648c-4.293,3.54,3.361,15.864,0,17.288c-3.42,1.447-5.6-7.179-5.762-10.373    c-0.205-4.029,1.31-13.673,3.841-14.983c2.958-1.527,8.829-2.156,11.524-1.536C39.606,58.498,40.131,62.067,44.126,63.828z"
   id="path3176" />
	</g>
</g>
<g
   id="g3185"
   transform="matrix(1.5464544,0,0,1.5743638,-26.65156,-52.44384)">
		<path
   inkscape:connector-curvature="0"
   id="path3187"
   d="m 31.195,121.104 c -3.821,-1.673 -4.846,-3.785 -3.384,-6.977 0.338,-0.737 1.415,-3.267 2.392,-5.619 1.754,-4.222 1.779,-4.344 1.984,-9.591 0.159,-4.079 0.067,-5.894 -0.394,-7.808 -0.728,-3.022 -2.85,-12.644 -4.226,-19.154 -1.357,-6.426 -1.543,-6.55 -2.223,-1.47 -0.384,2.874 -0.352,3.564 0.266,5.712 1.75,6.082 1.763,6.167 1.139,7.119 -0.705,1.077 -2.482,1.192 -3.327,0.216 -0.32,-0.369 -1.131,-2.68 -1.802,-5.135 l -1.221,-4.466 0.619,-5.126 c 0.341,-2.819 0.695,-5.655 0.787,-6.301 0.397,-2.785 4.4,-4.565 11.368,-5.054 l 2.96,-0.208 2.602,2.133 c 1.432,1.174 3.109,2.665 3.729,3.315 1.372,1.438 1.75,1.481 1.75,0.201 0,-3.079 1.466,-5.924 3.052,-5.924 0.876,0 1.935,1.2 1.935,2.195 0,1.114 -1.478,8.571 -1.893,9.548 -0.853,2.009 -3.805,0.994 -7.278,-2.501 -1.269,-1.276 -2.235,-2.108 -2.145,-1.85 0.089,0.259 1.126,3.838 2.302,7.951 2.547,8.909 3.251,11.127 3.527,11.127 0.115,0 2.993,-0.885 6.396,-1.966 3.403,-1.081 6.548,-2.045 6.989,-2.143 0.642,-0.143 7.354,0.913 12.841,2.02 0.735,0.148 1.288,-0.091 2.191,-0.954 2.115,-2.021 4.427,-2.008 5.946,0.034 1.028,1.381 0.955,2.612 -0.309,5.108 -1.428,2.822 -2.186,3.448 -4.142,3.42 -1.538,-0.022 -7.711,-0.876 -12.173,-1.682 -1.172,-0.212 -2.53,-0.386 -3.015,-0.386 -0.806,0 -5.201,1.276 -12.681,3.682 -1.577,0.507 -3.589,0.922 -4.471,0.922 h -1.605 l -0.148,7.193 c -0.118,5.701 -0.281,7.471 -0.789,8.535 -0.353,0.739 -1.176,2.722 -1.831,4.406 -1.164,2.999 -1.174,3.079 -0.454,3.662 1.874,1.517 2.099,3.666 0.561,5.354 -1.493,1.646 -2.87,1.754 -5.825,0.462 z" />
		<path
   inkscape:connector-curvature="0"
   id="path3189"
   d="m 27.457,57.311 c -0.673,-0.194 -1.751,-0.995 -2.397,-1.778 -0.983,-1.193 -1.175,-1.757 -1.175,-3.454 0,-1.754 0.168,-2.211 1.247,-3.385 2.125,-2.314 5.497,-2.424 7.67,-0.25 1.417,1.416 1.983,3.949 1.267,5.662 -0.583,1.396 -2.668,3.245 -3.661,3.245 -0.388,0 -0.936,0.071 -1.217,0.156 -0.281,0.086 -1.061,-0.002 -1.734,-0.196 z" />
	</g>
<g
   id="g3280"
   transform="matrix(0.55245065,0.60349197,-0.59279364,0.5624209,119.46573,-9.5218062)"><path
     id="path3270"
     d="M 100,51.058 H 0 C 0.007,58.293 5.523,61.65 9.963,61.67 H 90.039 C 95.335,61.65 99.976,57.486 100,51.058 l 0,0 z"
     inkscape:connector-curvature="0" /><path
     id="path3272"
     d="M 80.998,0 H 21.331 v 39.144 c 0.009,5.316 4.587,9.521 9.531,9.531 h 38.71 c 5.58,-0.011 9.387,-4.704 9.368,-9.531 V 35.897 C 89.987,35.888 98.002,27.594 97.998,17.923 98.002,8.08 90.145,-0.007 80.998,0 z M 78.94,28.427 V 7.364 h 2.058 c 7.568,-0.012 9.996,7.146 9.96,10.614 0.007,5.599 -4.14,10.97 -12.018,10.449 z"
     inkscape:connector-curvature="0" /></g></svg>